<svg width="68" height="68" viewBox="0 0 68 68" fill="none" xmlns="http://www.w3.org/2000/svg">
<path fill-rule="evenodd" clip-rule="evenodd" d="M31.0706 3.99995C31.0706 2.159 32.563 0.666626 34.404 0.666626C36.2449 0.666626 37.7373 2.15902 37.7373 3.99997L37.7373 7.33329H57.3337C61.0156 7.33329 64.0003 10.3181 64.0003 14V40.6641V40.6691V50.6666V50.6667C65.8413 50.6667 67.3337 52.1591 67.3337 54C67.3337 55.841 65.8413 57.3333 64.0003 57.3333L44.0004 57.3333L49.3337 61.3333C50.8064 62.4379 51.1049 64.5272 50.0003 66C48.8958 67.4727 46.8064 67.7712 45.3337 66.6666L37.3337 60.6666V64C37.3337 65.8409 35.8413 67.3333 34.0003 67.3333C32.1594 67.3333 30.667 65.8409 30.667 64V60.6666L22.667 66.6666C21.1942 67.7712 19.1049 67.4727 18.0003 66C16.8958 64.5272 17.1942 62.4379 18.667 61.3333L24.0003 57.3333L4.00033 57.3333C2.15937 57.3333 0.666992 55.8409 0.666992 54C0.666992 52.159 2.15938 50.6666 4.00033 50.6666V44.0445C3.99998 44.0167 3.99998 43.9888 4.00033 43.961V14C4.00033 10.3181 6.98509 7.33329 10.667 7.33329H31.0706L31.0706 3.99995ZM34.0391 50.6666C34.015 50.6664 33.9908 50.6664 33.9666 50.6666H33.9615L17.3337 50.6666H10.667V45.7153L19.0656 39.7163L27.1513 45.1068C28.3704 45.9195 29.9772 45.8409 31.1111 44.9131L47.1097 31.8234L57.3337 42.0473V44V50.6666H50.667L34.0391 50.6666ZM34.4039 14H17.3337H10.667V20.6666V37.5227L17.0629 32.9542C18.1898 32.1492 19.697 32.1249 20.8493 32.8931L28.7978 38.1921L45.2229 24.7534C46.5483 23.669 48.4798 23.7653 49.6907 24.9763L57.3337 32.6192V20.6666V14H50.667H34.4039ZM29.0003 20.6666C26.2389 20.6666 24.0003 22.9052 24.0003 25.6666C24.0003 28.428 26.2389 30.6666 29.0003 30.6666C31.7618 30.6666 34.0003 28.428 34.0003 25.6666C34.0003 22.9052 31.7618 20.6666 29.0003 20.6666Z" fill="url(#paint0_linear_116:5770)"/>
<defs>
<linearGradient id="paint0_linear_116:5770" x1="34.0003" y1="-51.1168" x2="34.0003" y2="85.1984" gradientUnits="userSpaceOnUse">
<stop stop-color="#DAAE6F"/>
<stop offset="1" stop-color="#765B26"/>
</linearGradient>
</defs>
</svg>
