<svg width="60" height="68" viewBox="0 0 60 68" fill="none" xmlns="http://www.w3.org/2000/svg">
<path fill-rule="evenodd" clip-rule="evenodd" d="M33.3333 3.99998C33.3333 2.90671 32.7972 1.88294 31.8986 1.26023C31.0001 0.637508 29.8532 0.49501 28.8296 0.878881L2.16292 10.8789C0.861909 11.3668 0 12.6105 0 14V64C0 65.8409 1.49238 67.3333 3.33333 67.3333C5.17428 67.3333 6.66667 65.8409 6.66667 64V16.31L26.6667 8.80998V34V64C26.6667 65.8409 28.1591 67.3333 30 67.3333C31.841 67.3333 33.3333 65.8409 33.3333 64V38.2692L53.3333 43.2692V64C53.3333 65.8409 54.8257 67.3333 56.6667 67.3333C58.5076 67.3333 60 65.8409 60 64V40.6666C60 39.1371 58.959 37.8038 57.4751 37.4328L33.3333 31.3974V3.99998ZM15 17.3333C13.1591 17.3333 11.6667 18.8257 11.6667 20.6666V24C11.6667 25.8409 13.1591 27.3333 15 27.3333H18.3333C20.1743 27.3333 21.6667 25.8409 21.6667 24V20.6666C21.6667 18.8257 20.1743 17.3333 18.3333 17.3333H15ZM11.6667 37.3333C11.6667 35.4924 13.1591 34 15 34H18.3333C20.1743 34 21.6667 35.4924 21.6667 37.3333V40.6666C21.6667 42.5076 20.1743 44 18.3333 44H15C13.1591 44 11.6667 42.5076 11.6667 40.6666V37.3333ZM15 50.6666C13.1591 50.6666 11.6667 52.159 11.6667 54V57.3333C11.6667 59.1743 13.1591 60.6666 15 60.6666H18.3333C20.1743 60.6666 21.6667 59.1743 21.6667 57.3333V54C21.6667 52.159 20.1743 50.6666 18.3333 50.6666H15ZM41.6667 47.3333C39.8257 47.3333 38.3333 48.8257 38.3333 50.6666V54C38.3333 55.8409 39.8257 57.3333 41.6667 57.3333H45C46.8409 57.3333 48.3333 55.8409 48.3333 54V50.6666C48.3333 48.8257 46.8409 47.3333 45 47.3333H41.6667Z" fill="url(#paint0_linear_116:5768)"/>
<defs>
<linearGradient id="paint0_linear_116:5768" x1="30" y1="-51.1167" x2="30" y2="85.1982" gradientUnits="userSpaceOnUse">
<stop stop-color="#DAAE6F"/>
<stop offset="1" stop-color="#765B26"/>
</linearGradient>
</defs>
</svg>
