<svg width="60" height="68" viewBox="0 0 60 68" fill="none" xmlns="http://www.w3.org/2000/svg">
<path fill-rule="evenodd" clip-rule="evenodd" d="M10 67.3334L50 67.3334C55.5228 67.3334 60 62.8562 60 57.3334V34V20.6667L60 10.6667C60 5.14383 55.5228 0.666687 50 0.666687H41.6667H30H10C4.47716 0.666687 0 5.14384 0 10.6667V57.3334C6.54924e-06 62.8562 4.47716 67.3334 10 67.3334ZM53.3333 57.3334C53.3333 59.1743 51.8409 60.6667 50 60.6667L10 60.6667C8.15906 60.6667 6.66667 59.1743 6.66667 57.3334L6.66667 10.6667C6.66667 8.82574 8.15905 7.33336 10 7.33336L30 7.33336L41.6667 7.33335L50 7.33335C51.8409 7.33335 53.3333 8.82573 53.3333 10.6667L53.3333 20.6667V34V57.3334ZM16.6667 17.3334C14.8257 17.3334 13.3334 18.8257 13.3334 20.6667C13.3334 22.5076 14.8257 24 16.6667 24H43.3334C45.1743 24 46.6667 22.5076 46.6667 20.6667C46.6667 18.8257 45.1743 17.3334 43.3334 17.3334H16.6667ZM13.3334 34C13.3334 32.1591 14.8257 30.6667 16.6667 30.6667H43.3334C45.1743 30.6667 46.6667 32.1591 46.6667 34C46.6667 35.841 45.1743 37.3334 43.3334 37.3334H16.6667C14.8257 37.3334 13.3334 35.841 13.3334 34ZM16.6667 44C14.8257 44 13.3334 45.4924 13.3334 47.3334C13.3334 49.1743 14.8257 50.6667 16.6667 50.6667H43.3334C45.1743 50.6667 46.6667 49.1743 46.6667 47.3334C46.6667 45.4924 45.1743 44 43.3334 44H16.6667Z" fill="url(#paint0_linear_116:5772)"/>
<defs>
<linearGradient id="paint0_linear_116:5772" x1="30" y1="-51.1166" x2="30" y2="85.1982" gradientUnits="userSpaceOnUse">
<stop stop-color="#DAAE6F"/>
<stop offset="1" stop-color="#765B26"/>
</linearGradient>
</defs>
</svg>
