<svg width="60" height="68" viewBox="0 0 60 68" fill="none" xmlns="http://www.w3.org/2000/svg">
<path fill-rule="evenodd" clip-rule="evenodd" d="M50 0.666687H10C4.47715 0.666687 0 5.14384 0 10.6667V57.3334C0 62.8562 4.47716 67.3334 10 67.3334H50C55.5228 67.3334 60 62.8562 60 57.3334V10.6667C60 5.14384 55.5228 0.666687 50 0.666687ZM6.66667 10.6667C6.66667 8.82574 8.15905 7.33335 10 7.33335H50C51.8409 7.33335 53.3333 8.82574 53.3333 10.6667V20.6667H6.66667V10.6667ZM6.66667 27.3334V57.3334C6.66667 59.1743 8.15905 60.6667 10 60.6667H50C51.8409 60.6667 53.3333 59.1743 53.3333 57.3334V27.3334H6.66667ZM15 32.3334C12.2386 32.3334 10 34.5719 10 37.3334C10 40.0948 12.2386 42.3334 15 42.3334C17.7614 42.3334 20 40.0948 20 37.3334C20 34.5719 17.7614 32.3334 15 32.3334ZM25 37.3334C25 34.5719 27.2386 32.3334 30 32.3334C32.7614 32.3334 35 34.5719 35 37.3334C35 40.0948 32.7614 42.3334 30 42.3334C27.2386 42.3334 25 40.0948 25 37.3334ZM45 32.3334C42.2386 32.3334 40 34.5719 40 37.3334C40 40.0948 42.2386 42.3334 45 42.3334C47.7614 42.3334 50 40.0948 50 37.3334C50 34.5719 47.7614 32.3334 45 32.3334ZM40 50.6667C40 47.9053 42.2386 45.6667 45 45.6667C47.7614 45.6667 50 47.9053 50 50.6667C50 53.4281 47.7614 55.6667 45 55.6667C42.2386 55.6667 40 53.4281 40 50.6667ZM15 45.6667C12.2386 45.6667 10 47.9053 10 50.6667C10 53.4281 12.2386 55.6667 15 55.6667C17.7614 55.6667 20 53.4281 20 50.6667C20 47.9053 17.7614 45.6667 15 45.6667ZM25 50.6667C25 47.9053 27.2386 45.6667 30 45.6667C32.7614 45.6667 35 47.9053 35 50.6667C35 53.4281 32.7614 55.6667 30 55.6667C27.2386 55.6667 25 53.4281 25 50.6667Z" fill="url(#paint0_linear_116:5774)"/>
<defs>
<linearGradient id="paint0_linear_116:5774" x1="30" y1="-51.1166" x2="30" y2="85.1982" gradientUnits="userSpaceOnUse">
<stop stop-color="#DAAE6F"/>
<stop offset="1" stop-color="#765B26"/>
</linearGradient>
</defs>
</svg>
