<svg width="180" height="42" viewBox="0 0 180 42" fill="none" xmlns="http://www.w3.org/2000/svg">
<path d="M67.583 35.1629C67.583 34.581 67.6853 34.002 67.8899 33.4245C68.0945 32.8473 68.392 32.3318 68.7827 31.8769C69.1738 31.4227 69.6556 31.0522 70.228 30.766C70.8009 30.4798 71.4506 30.3365 72.1776 30.3365C73.0414 30.3365 73.7797 30.532 74.3931 30.9224C75.0066 31.3135 75.4586 31.8224 75.7496 32.4497L75.0001 32.9133C74.8451 32.5955 74.6569 32.3267 74.4341 32.1087C74.2114 31.8906 73.9727 31.7136 73.7183 31.5772C73.4637 31.4408 73.1999 31.3436 72.9275 31.2837C72.6547 31.2249 72.3866 31.1955 72.1232 31.1955C71.5413 31.1955 71.0276 31.3134 70.5828 31.55C70.1373 31.7861 69.7626 32.0952 69.4579 32.4772C69.1531 32.8585 68.9238 33.2884 68.7693 33.7655C68.6148 34.2425 68.5375 34.7265 68.5375 35.217C68.5375 35.7539 68.6307 36.2669 68.8172 36.7577C69.0033 37.2485 69.2576 37.6828 69.5805 38.0597C69.903 38.437 70.2846 38.7367 70.7258 38.9598C71.1665 39.1822 71.6458 39.2939 72.1642 39.2939C72.4366 39.2939 72.7163 39.2594 73.0026 39.1912C73.2888 39.1234 73.566 39.0142 73.8344 38.8644C74.1018 38.7142 74.3499 38.5281 74.577 38.305C74.8045 38.0829 74.995 37.8123 75.1495 37.4941L75.9404 37.903C75.7858 38.2665 75.5678 38.5868 75.2863 38.8644C75.0044 39.1415 74.6906 39.3752 74.3452 39.5663C73.9999 39.7572 73.6338 39.9026 73.2478 40.0028C72.8615 40.1025 72.482 40.1526 72.1094 40.1526C71.4459 40.1526 70.8368 40.0071 70.2825 39.7165C69.7281 39.4256 69.2511 39.0461 68.8513 38.5778C68.4511 38.1101 68.1399 37.5779 67.9171 36.9826C67.6944 36.3877 67.583 35.7811 67.583 35.1629Z" fill="url(#paint0_linear_116:5711)"/>
<path d="M77.8897 35.2306C77.8897 35.7581 77.976 36.2645 78.1491 36.751C78.3217 37.2372 78.567 37.6689 78.8851 38.0458C79.2033 38.4231 79.5806 38.7231 80.0166 38.9459C80.4531 39.1686 80.9392 39.2796 81.4754 39.2796C82.021 39.2796 82.5162 39.1617 82.9613 38.9252C83.4065 38.6894 83.7838 38.3799 84.0932 37.9979C84.4023 37.6166 84.6406 37.1849 84.809 36.7032C84.9769 36.2214 85.0611 35.7305 85.0611 35.2306C85.0611 34.7035 84.9726 34.1971 84.7952 33.7106C84.6178 33.2244 84.3704 32.7949 84.0522 32.4223C83.7341 32.0498 83.3571 31.7519 82.9207 31.5292C82.4843 31.3068 82.0025 31.1954 81.4754 31.1954C80.9301 31.1954 80.4346 31.3115 79.9894 31.5426C79.5439 31.7748 79.1666 32.0817 78.8579 32.463C78.5488 32.8446 78.3101 33.2767 78.1422 33.7584C77.9738 34.2402 77.8897 34.7311 77.8897 35.2306ZM81.4754 40.1387C80.8028 40.1387 80.1871 40.0005 79.6281 39.7229C79.0694 39.4454 78.5898 39.0779 78.19 38.6186C77.7899 38.1597 77.4812 37.6348 77.2628 37.0438C77.0447 36.4528 76.9355 35.8488 76.9355 35.2306C76.9355 34.5856 77.0513 33.9674 77.2835 33.3768C77.5149 32.7859 77.8356 32.2634 78.2445 31.8089C78.6533 31.3543 79.1351 30.993 79.6898 30.7249C80.2437 30.4568 80.8438 30.3229 81.4892 30.3229C82.1618 30.3229 82.7778 30.4662 83.3365 30.7521C83.8955 31.0387 84.3726 31.4135 84.768 31.8767C85.1634 32.3407 85.47 32.8653 85.6883 33.4515C85.9064 34.0378 86.0156 34.6357 86.0156 35.244C86.0156 35.8898 85.8999 36.508 85.6677 37.0986C85.4362 37.6895 85.1177 38.2094 84.7136 38.6596C84.3091 39.1095 83.8291 39.4683 83.2751 39.7364C82.7208 40.0048 82.1208 40.1387 81.4754 40.1387Z" fill="url(#paint1_linear_116:5711)"/>
<path d="M88.7699 32.1634V40.0706H87.8154V30.3912H88.5515L94.9593 38.4478V30.4046H95.9134V40.0706H95.0819L88.7699 32.1634Z" fill="url(#paint2_linear_116:5711)"/>
<path d="M103.998 32.2044C103.725 31.8953 103.361 31.6454 102.907 31.4546C102.452 31.2638 101.934 31.168 101.353 31.168C100.498 31.168 99.8756 31.3294 99.4852 31.6523C99.0942 31.9748 98.8986 32.4134 98.8986 32.9677C98.8986 33.2587 98.9512 33.4974 99.0553 33.6835C99.1598 33.8696 99.3213 34.031 99.5397 34.1678C99.7577 34.3039 100.037 34.4221 100.378 34.5219C100.719 34.622 101.121 34.7218 101.584 34.8215C102.102 34.9311 102.568 35.0534 102.982 35.1901C103.395 35.3265 103.748 35.497 104.038 35.7013C104.329 35.9059 104.552 36.1533 104.706 36.4443C104.861 36.7352 104.938 37.0987 104.938 37.5351C104.938 37.9803 104.852 38.3666 104.679 38.6935C104.506 39.0211 104.266 39.2939 103.957 39.5116C103.648 39.73 103.28 39.8914 102.853 39.9955C102.425 40.1 101.957 40.1526 101.448 40.1526C99.9489 40.1526 98.6534 39.6846 97.5625 38.7486L98.0399 37.9712C98.2122 38.1533 98.4194 38.326 98.6603 38.4896C98.9008 38.6529 99.1693 38.7958 99.4646 38.9188C99.7599 39.041 100.076 39.1368 100.412 39.2046C100.748 39.2732 101.103 39.3073 101.475 39.3073C102.248 39.3073 102.85 39.1687 103.282 38.8916C103.713 38.6144 103.929 38.194 103.929 37.6306C103.929 37.3302 103.868 37.078 103.745 36.8738C103.623 36.6692 103.439 36.4922 103.193 36.342C102.948 36.1921 102.643 36.0626 102.28 35.9534C101.916 35.8446 101.494 35.7354 101.012 35.6262C100.502 35.5083 100.057 35.3853 99.6757 35.2583C99.2941 35.131 98.9712 34.9717 98.7078 34.7809C98.4441 34.5901 98.2467 34.3605 98.115 34.0927C97.983 33.8243 97.9173 33.4948 97.9173 33.1038C97.9173 32.6586 98.0011 32.2614 98.1694 31.9113C98.3374 31.5612 98.5761 31.2703 98.8848 31.0388C99.1939 30.8066 99.5578 30.63 99.9757 30.507C100.394 30.3844 100.857 30.3231 101.366 30.3231C102.012 30.3231 102.587 30.4207 103.091 30.6162C103.595 30.8117 104.052 31.0864 104.461 31.4408L103.998 32.2044Z" fill="url(#paint3_linear_116:5711)"/>
<path d="M113.487 31.2365H110.037V40.0706H109.083V31.2365H105.634V30.3912H113.487V31.2365Z" fill="url(#paint4_linear_116:5711)"/>
<path d="M115.885 35.6534H119.048C119.33 35.6534 119.587 35.592 119.818 35.4698C120.05 35.3468 120.248 35.181 120.411 34.9717C120.575 34.7627 120.702 34.5266 120.793 34.2628C120.884 33.9994 120.93 33.7219 120.93 33.4313C120.93 33.1407 120.877 32.861 120.773 32.5929C120.668 32.3248 120.527 32.0905 120.35 31.8906C120.173 31.6911 119.964 31.5318 119.723 31.4135C119.482 31.2956 119.23 31.2365 118.966 31.2365H115.885V35.6534ZM114.931 40.0706V30.3912H119.021C119.439 30.3912 119.823 30.4797 120.173 30.6568C120.523 30.8342 120.825 31.066 121.079 31.3522C121.334 31.6385 121.531 31.9631 121.672 32.3266C121.813 32.6905 121.884 33.0584 121.884 33.4313C121.884 33.7858 121.831 34.1246 121.727 34.4467C121.623 34.7696 121.477 35.0606 121.291 35.3192C121.104 35.5782 120.879 35.7966 120.616 35.974C120.352 36.1507 120.057 36.2715 119.73 36.335L122.102 40.0706H121.025L118.748 36.4986H115.885V40.0706H114.931Z" fill="url(#paint5_linear_116:5711)"/>
<path d="M127.76 39.2796C128.369 39.2796 128.876 39.1639 129.28 38.9321C129.685 38.7006 130.007 38.3959 130.248 38.0186C130.489 37.6417 130.658 37.2121 130.753 36.7304C130.848 36.249 130.896 35.7625 130.896 35.2716V30.3911H131.85V35.2716C131.85 35.9261 131.777 36.5461 131.632 37.1327C131.487 37.7189 131.252 38.2348 130.93 38.6799C130.607 39.1254 130.187 39.4799 129.669 39.7436C129.151 40.007 128.519 40.1387 127.774 40.1387C127.01 40.1387 126.367 40.0005 125.845 39.7229C125.322 39.4454 124.902 39.0801 124.584 38.6255C124.265 38.171 124.038 37.6529 123.902 37.0714C123.765 36.4898 123.697 35.8898 123.697 35.2716V30.3911H124.638V35.2716C124.638 35.781 124.688 36.2762 124.788 36.7576C124.888 37.2393 125.058 37.6663 125.3 38.0396C125.54 38.4122 125.861 38.7119 126.26 38.939C126.66 39.1664 127.16 39.2796 127.76 39.2796Z" fill="url(#paint6_linear_116:5711)"/>
<path d="M133.485 35.1629C133.485 34.581 133.588 34.002 133.792 33.4245C133.997 32.8473 134.294 32.3318 134.685 31.8769C135.076 31.4227 135.558 31.0522 136.13 30.766C136.703 30.4798 137.353 30.3365 138.08 30.3365C138.943 30.3365 139.682 30.532 140.295 30.9224C140.909 31.3135 141.361 31.8224 141.652 32.4497L140.902 32.9133C140.747 32.5955 140.559 32.3267 140.336 32.1087C140.113 31.8906 139.875 31.7136 139.621 31.5772C139.366 31.4408 139.102 31.3436 138.83 31.2837C138.557 31.2249 138.289 31.1955 138.026 31.1955C137.444 31.1955 136.93 31.3134 136.485 31.55C136.04 31.7861 135.665 32.0952 135.36 32.4772C135.056 32.8585 134.826 33.2884 134.672 33.7655C134.517 34.2425 134.44 34.7265 134.44 35.217C134.44 35.7539 134.533 36.2669 134.72 36.7577C134.905 37.2485 135.16 37.6828 135.483 38.0597C135.805 38.437 136.187 38.7367 136.628 38.9598C137.069 39.1822 137.548 39.2939 138.066 39.2939C138.339 39.2939 138.618 39.2594 138.905 39.1912C139.191 39.1234 139.468 39.0142 139.736 38.8644C140.005 38.7142 140.252 38.5281 140.479 38.305C140.707 38.0829 140.897 37.8123 141.052 37.4941L141.843 37.903C141.688 38.2665 141.47 38.5868 141.188 38.8644C140.907 39.1415 140.593 39.3752 140.248 39.5663C139.902 39.7572 139.536 39.9026 139.15 40.0028C138.764 40.1025 138.384 40.1526 138.012 40.1526C137.348 40.1526 136.739 40.0071 136.185 39.7165C135.63 39.4256 135.153 39.0461 134.754 38.5778C134.353 38.1101 134.042 37.5779 133.819 36.9826C133.597 36.3877 133.485 35.7811 133.485 35.1629Z" fill="url(#paint7_linear_116:5711)"/>
<path d="M150.35 31.2365H146.901V40.0706H145.947V31.2365H142.498V30.3912H150.35V31.2365Z" fill="url(#paint8_linear_116:5711)"/>
<path d="M151.795 40.0706V30.3912H152.749V40.0706H151.795Z" fill="url(#paint9_linear_116:5711)"/>
<path d="M155.49 35.2306C155.49 35.7581 155.576 36.2645 155.749 36.751C155.921 37.2372 156.167 37.6689 156.485 38.0458C156.803 38.4231 157.18 38.7231 157.617 38.9459C158.053 39.1686 158.539 39.2796 159.075 39.2796C159.621 39.2796 160.116 39.1617 160.561 38.9252C161.006 38.6894 161.384 38.3799 161.693 37.9979C162.002 37.6166 162.24 37.1849 162.409 36.7032C162.577 36.2214 162.661 35.7305 162.661 35.2306C162.661 34.7035 162.572 34.1971 162.395 33.7106C162.218 33.2244 161.97 32.7949 161.652 32.4223C161.334 32.0498 160.957 31.7519 160.52 31.5292C160.084 31.3068 159.602 31.1954 159.075 31.1954C158.53 31.1954 158.035 31.3115 157.589 31.5426C157.144 31.7748 156.767 32.0817 156.458 32.463C156.149 32.8446 155.91 33.2767 155.742 33.7584C155.574 34.2402 155.49 34.7311 155.49 35.2306ZM159.075 40.1387C158.403 40.1387 157.787 40.0005 157.228 39.7229C156.669 39.4454 156.189 39.0779 155.79 38.6186C155.39 38.1597 155.081 37.6348 154.863 37.0438C154.645 36.4528 154.535 35.8488 154.535 35.2306C154.535 34.5856 154.651 33.9674 154.883 33.3768C155.115 32.7859 155.435 32.2634 155.844 31.8089C156.253 31.3543 156.735 30.993 157.289 30.7249C157.844 30.4568 158.443 30.3229 159.089 30.3229C159.762 30.3229 160.377 30.4662 160.936 30.7521C161.495 31.0387 161.972 31.4135 162.368 31.8767C162.763 32.3407 163.07 32.8653 163.288 33.4515C163.506 34.0378 163.615 34.6357 163.615 35.244C163.615 35.8898 163.499 36.508 163.268 37.0986C163.036 37.6895 162.718 38.2094 162.313 38.6596C161.909 39.1095 161.429 39.4683 160.875 39.7364C160.32 40.0048 159.72 40.1387 159.075 40.1387Z" fill="url(#paint10_linear_116:5711)"/>
<path d="M166.369 32.1634V40.0706H165.415V30.3912H166.151L172.559 38.4478V30.4046H173.513V40.0706H172.682L166.369 32.1634Z" fill="url(#paint11_linear_116:5711)"/>
<path d="M46.0875 28.0941L57.9043 21.4755L58.0636 35.111L46.0875 28.0941ZM30.1407 32.9426L22.1443 28.2515L30.7266 23.2226L36.715 26.7318L40.2707 24.6857L32.5554 20.1651V5.16997L55.781 18.5812L30.1407 32.9426ZM3.3904 35.111L3.5493 21.4729L12.8172 26.9099L16.3718 24.8646L5.66685 18.5849L28.8979 5.16997V20.1651L25.0905 22.3959L25.0995 22.4111L3.3904 35.111ZM61.5971 17.794L30.7266 0.000350952L0.14424 17.794L0 41.4875L18.6221 30.3154L30.1001 37.0486L42.4847 30.1122L61.7411 41.4157L61.5971 17.794Z" fill="url(#paint12_linear_116:5711)"/>
<path d="M67.8389 24.4617H73.9329V1.0362L67.8389 6.53777V24.4617Z" fill="url(#paint13_linear_116:5711)"/>
<path d="M95.5705 1.57011V11.1598L85.0216 1.57011L79.7939 6.27173V24.4616H85.8879V10.6646L101.665 24.8867V7.07638H107.867V24.4616H113.961V7.07638H116.796L122.89 1.57011H95.5705Z" fill="url(#paint14_linear_116:5711)"/>
<path d="M164.511 10.2933C162.938 10.2933 162.153 9.73132 162.153 8.60707C162.153 8.1906 162.313 7.83144 162.633 7.52925C162.953 7.22778 163.309 7.0765 163.703 7.0765H170.802L176.908 1.57022H163.143C161.349 1.57022 159.719 2.2936 158.255 3.74037C156.791 5.1875 156.059 6.84068 156.059 8.7003C156.059 10.5606 156.726 12.2087 158.06 13.6454C159.394 15.082 161.076 15.7996 163.104 15.7996C164.635 15.7996 165.401 16.3513 165.401 17.4538C165.401 17.8627 165.25 18.215 164.951 18.5106C164.651 18.807 164.304 18.9554 163.911 18.9554H163.072V18.939L147.057 18.9554V1.56224L140.963 7.07033V18.9528V24.4617H164.411C166.287 24.4617 167.916 23.8134 169.298 22.5164C170.763 21.1386 171.495 19.4197 171.495 17.3621C171.495 15.2837 170.77 13.5652 169.322 12.2069C167.977 10.9314 166.373 10.2933 164.511 10.2933Z" fill="url(#paint15_linear_116:5711)"/>
<path d="M135.832 7.0765L141.926 1.57022H127.556L120.117 8.40027V10.2624V24.4617H135.832V18.9554H126.211V15.7687H135.832V10.2624H126.211V7.0765H135.832Z" fill="url(#paint16_linear_116:5711)"/>
<path d="M178.317 3.04107C178.198 2.97722 178.105 2.88761 178.038 2.77224C177.971 2.65688 177.937 2.52556 177.937 2.37827C177.937 2.23062 177.971 2.09929 178.038 1.98429C178.105 1.86857 178.198 1.77895 178.317 1.71547C178.436 1.65162 178.572 1.61933 178.723 1.61933C178.852 1.61933 178.97 1.64653 179.077 1.70059C179.184 1.75464 179.267 1.82684 179.326 1.9179L179.114 2.06882C179.025 1.93605 178.893 1.86965 178.719 1.86965C178.575 1.86965 178.456 1.91644 178.362 2.00968C178.267 2.10327 178.22 2.2259 178.22 2.37827C178.22 2.53064 178.267 2.65325 178.362 2.74649C178.456 2.83972 178.575 2.88651 178.719 2.88651C178.893 2.88651 179.025 2.82013 179.114 2.68736L179.326 2.835C179.267 2.92824 179.184 3.00153 179.077 3.05595C178.97 3.10964 178.852 3.13685 178.723 3.13685C178.572 3.13685 178.436 3.10528 178.317 3.04107ZM179.263 3.36176C179.437 3.26091 179.574 3.12305 179.674 2.94892C179.775 2.77442 179.825 2.58179 179.825 2.37065C179.825 2.15951 179.776 1.96833 179.678 1.79601C179.58 1.62442 179.445 1.48946 179.272 1.39114C179.1 1.29319 178.905 1.24385 178.689 1.24385C178.476 1.24385 178.282 1.29392 178.107 1.39477C177.932 1.49527 177.794 1.63239 177.695 1.80544C177.596 1.97848 177.546 2.16967 177.546 2.37827C177.546 2.58687 177.596 2.77769 177.695 2.9511C177.794 3.12378 177.931 3.26091 178.105 3.36176C178.278 3.46225 178.471 3.51268 178.682 3.51268C178.895 3.51268 179.089 3.46225 179.263 3.36176ZM178.017 3.50507C177.817 3.3897 177.66 3.23262 177.544 3.03345C177.429 2.83501 177.371 2.61625 177.371 2.37827C177.371 2.13992 177.429 1.92153 177.544 1.72273C177.66 1.52356 177.818 1.36684 178.019 1.25112C178.22 1.13575 178.444 1.07807 178.689 1.07807C178.935 1.07807 179.158 1.13466 179.358 1.24748C179.558 1.36031 179.715 1.51594 179.829 1.71366C179.943 1.91101 180 2.13013 180 2.37065C180 2.61117 179.942 2.83173 179.825 3.03163C179.708 3.23188 179.55 3.3897 179.349 3.50507C179.148 3.62079 178.925 3.67847 178.682 3.67847C178.439 3.67847 178.217 3.62079 178.017 3.50507Z" fill="url(#paint17_linear_116:5711)"/>
<defs>
<linearGradient id="paint0_linear_116:5711" x1="71.7619" y1="42.2487" x2="71.7619" y2="-4.57418" gradientUnits="userSpaceOnUse">
<stop stop-color="#DAAE6F"/>
<stop offset="1" stop-color="#765B26"/>
</linearGradient>
<linearGradient id="paint1_linear_116:5711" x1="81.4754" y1="42.2486" x2="81.4754" y2="-4.57434" gradientUnits="userSpaceOnUse">
<stop stop-color="#DAAE6F"/>
<stop offset="1" stop-color="#765B26"/>
</linearGradient>
<linearGradient id="paint2_linear_116:5711" x1="91.8644" y1="42.2487" x2="91.8644" y2="-4.5743" gradientUnits="userSpaceOnUse">
<stop stop-color="#DAAE6F"/>
<stop offset="1" stop-color="#765B26"/>
</linearGradient>
<linearGradient id="paint3_linear_116:5711" x1="101.251" y1="42.2487" x2="101.251" y2="-4.5742" gradientUnits="userSpaceOnUse">
<stop stop-color="#DAAE6F"/>
<stop offset="1" stop-color="#765B26"/>
</linearGradient>
<linearGradient id="paint4_linear_116:5711" x1="109.56" y1="42.2487" x2="109.56" y2="-4.5743" gradientUnits="userSpaceOnUse">
<stop stop-color="#DAAE6F"/>
<stop offset="1" stop-color="#765B26"/>
</linearGradient>
<linearGradient id="paint5_linear_116:5711" x1="118.516" y1="42.2487" x2="118.516" y2="-4.5743" gradientUnits="userSpaceOnUse">
<stop stop-color="#DAAE6F"/>
<stop offset="1" stop-color="#765B26"/>
</linearGradient>
<linearGradient id="paint6_linear_116:5711" x1="127.774" y1="42.2486" x2="127.774" y2="-4.57437" gradientUnits="userSpaceOnUse">
<stop stop-color="#DAAE6F"/>
<stop offset="1" stop-color="#765B26"/>
</linearGradient>
<linearGradient id="paint7_linear_116:5711" x1="137.664" y1="42.2487" x2="137.664" y2="-4.57418" gradientUnits="userSpaceOnUse">
<stop stop-color="#DAAE6F"/>
<stop offset="1" stop-color="#765B26"/>
</linearGradient>
<linearGradient id="paint8_linear_116:5711" x1="146.424" y1="42.2487" x2="146.424" y2="-4.5743" gradientUnits="userSpaceOnUse">
<stop stop-color="#DAAE6F"/>
<stop offset="1" stop-color="#765B26"/>
</linearGradient>
<linearGradient id="paint9_linear_116:5711" x1="152.272" y1="42.2487" x2="152.272" y2="-4.5743" gradientUnits="userSpaceOnUse">
<stop stop-color="#DAAE6F"/>
<stop offset="1" stop-color="#765B26"/>
</linearGradient>
<linearGradient id="paint10_linear_116:5711" x1="159.075" y1="42.2486" x2="159.075" y2="-4.57434" gradientUnits="userSpaceOnUse">
<stop stop-color="#DAAE6F"/>
<stop offset="1" stop-color="#765B26"/>
</linearGradient>
<linearGradient id="paint11_linear_116:5711" x1="169.464" y1="42.2487" x2="169.464" y2="-4.5743" gradientUnits="userSpaceOnUse">
<stop stop-color="#DAAE6F"/>
<stop offset="1" stop-color="#765B26"/>
</linearGradient>
<linearGradient id="paint12_linear_116:5711" x1="30.8707" y1="42.2487" x2="30.8707" y2="-4.57431" gradientUnits="userSpaceOnUse">
<stop stop-color="#DAAE6F"/>
<stop offset="1" stop-color="#765B26"/>
</linearGradient>
<linearGradient id="paint13_linear_116:5711" x1="70.8859" y1="42.2488" x2="70.8859" y2="-4.57419" gradientUnits="userSpaceOnUse">
<stop stop-color="#DAAE6F"/>
<stop offset="1" stop-color="#765B26"/>
</linearGradient>
<linearGradient id="paint14_linear_116:5711" x1="101.342" y1="42.2487" x2="101.342" y2="-4.5743" gradientUnits="userSpaceOnUse">
<stop stop-color="#DAAE6F"/>
<stop offset="1" stop-color="#765B26"/>
</linearGradient>
<linearGradient id="paint15_linear_116:5711" x1="158.935" y1="42.2488" x2="158.935" y2="-4.5742" gradientUnits="userSpaceOnUse">
<stop stop-color="#DAAE6F"/>
<stop offset="1" stop-color="#765B26"/>
</linearGradient>
<linearGradient id="paint16_linear_116:5711" x1="131.022" y1="42.2488" x2="131.022" y2="-4.57419" gradientUnits="userSpaceOnUse">
<stop stop-color="#DAAE6F"/>
<stop offset="1" stop-color="#765B26"/>
</linearGradient>
<linearGradient id="paint17_linear_116:5711" x1="178.686" y1="42.248" x2="178.686" y2="-4.57439" gradientUnits="userSpaceOnUse">
<stop stop-color="#DAAE6F"/>
<stop offset="1" stop-color="#765B26"/>
</linearGradient>
</defs>
</svg>
